# xmcd CD database file
# Copyright (C) 1993-1998 Ti Kan
#
# Track frame offsets:
#	150
#	16502
#	31047
#	50632
#	76672
#	95072
#	117632
#	141805
#	162947
#
# Disc length: 2579 seconds
#
# Revision: 1
# Processed by: cddbd v1.4b41PL1 Copyright (c) Steve Scherf et al.
# Submitted via: CDValet v3.31 - Copyright (c) 1997 Greg Leichner
#
DISCID=670a1109
DTITLE=Linda Hornbuckle with No Delay - Soul Diva Meets The Blu
DTITLE=es Monsters
DYEAR=1900
DGENRE=
TTITLE0=Baby I Love You
TTITLE1=I Can't Stop
TTITLE2=Hound Dog
TTITLE3=Don't Let The Temptation Turn You Around
TTITLE4=As Long As I'm Moving
TTITLE5=Thankful and Thoughtful
TTITLE6=Do I Move You
TTITLE7=I Can't Stand The Rain
TTITLE8=Amazing Grace
EXTD=
EXTT0=
EXTT1=
EXTT2=
EXTT3=
EXTT4=
EXTT5=
EXTT6=
EXTT7=
EXTT8=
PLAYORDER=
